<?xml version="1.0" encoding="UTF-8"?><!DOCTYPE svg PUBLIC "-//W3C//DTD SVG 1.1//EN" "http://www.w3.org/Graphics/SVG/1.1/DTD/svg11.dtd">
<svg xmlns="http://www.w3.org/2000/svg" xmlns:xlink="http://www.w3.org/1999/xlink"><defs/><symbol id="arrow" viewBox="0 0 23.28 15.03">
  <title>arrow</title>
  <line x1="21.72" y1="7.58" y2="7.58"/>
  <polyline points="15.06 14.32 21.86 7.51 15.06 0.71"/>
</symbol><symbol id="icon-email" viewBox="0 0 32 24">
  <title>icon-email</title>
  <path d="M0,0V24H32V0ZM29.75,1,16.37,10.15,2.3,1ZM1,23V1.35l15.38,10L31,1.36V23Z"/>
</symbol><symbol id="icon-instagram" viewBox="0 0 40 40">
  <title>icon-instagram</title>
  <path d="M26,20a6,6,0,0,0-.21-1.59h1.85V27a.55.55,0,0,1-.55.55H12.92a.55.55,0,0,1-.56-.55V18.43h1.86A6,6,0,1,0,26,20Zm-1.63-3.89a.55.55,0,0,1-.56-.55V12.91a.56.56,0,0,1,.56-.55h2.67a.56.56,0,0,1,.56.55v2.67a.55.55,0,0,1-.56.55ZM20,23.82A3.8,3.8,0,1,1,23.83,20,3.8,3.8,0,0,1,20,23.82Zm10,3.81V12.37A2.37,2.37,0,0,0,27.62,10H12.38A2.37,2.37,0,0,0,10,12.37V27.63A2.37,2.37,0,0,0,12.38,30H27.62A2.37,2.37,0,0,0,30,27.63ZM20,0A20,20,0,1,1,0,20,20,20,0,0,1,20,0Z" style="fill-rule: evenodd"/>
</symbol><symbol id="icon-linkedin" viewBox="0 0 40 40">
  <title>icon-linkedin</title>
  <path d="M20,0A20,20,0,1,0,40,20,20,20,0,0,0,20,0ZM11.82,28.2h4V15.5h-4Zm2-14.45a2.29,2.29,0,1,1,2.29-2.29A2.29,2.29,0,0,1,13.8,13.75ZM30.56,28.2H26.61V22c0-1.47,0-3.36-2.05-3.36s-2.37,1.6-2.37,3.26V28.2H18.25V15.5H22v1.73h.06a4.14,4.14,0,0,1,3.73-2.05c4,0,4.74,2.64,4.74,6.05Z" style="fill-rule: evenodd"/>
</symbol><symbol id="icon-pdf" viewBox="0 0 23 30.34">
  <title>icon-pdf</title>
  <g>
    <polyline points="22.5 29.83 22.5 10.38 12.73 0.5 0.5 0.5 0.5 29.83 23 29.84"/>
    <polyline points="12.19 0.18 12.19 10.29 22.3 10.29"/>
  </g>
</symbol><symbol id="icon-twitter" viewBox="0 0 40 40">
  <title>icon-twitter</title>
  <path d="M20,0A20,20,0,1,0,40,20,20,20,0,0,0,20,0m8,16c0,.17,0,.34,0,.52A11.5,11.5,0,0,1,16.29,28,11.8,11.8,0,0,1,10,26.19c.32,0,.65,0,1,0a8.3,8.3,0,0,0,5.1-1.73,4.1,4.1,0,0,1-3.84-2.8,3.94,3.94,0,0,0,.77.07,4.34,4.34,0,0,0,1.09-.14,4.06,4.06,0,0,1-3.3-4v-.05a4.19,4.19,0,0,0,1.86.5,4,4,0,0,1-1.27-5.39A11.75,11.75,0,0,0,19.85,17a4,4,0,0,1-.11-.92,4.12,4.12,0,0,1,7.1-2.76,8.29,8.29,0,0,0,2.61-1,4.08,4.08,0,0,1-1.81,2.23A8.16,8.16,0,0,0,30,13.89,8.35,8.35,0,0,1,28,16" style="fill-rule: evenodd"/>
</symbol><symbol id="logo" viewBox="0 0 58.5 40.12">
  <title>logo</title>
  <path d="M52.22,9.9a6.8,6.8,0,0,0-6.78,6.83v2.87H51V16.08c0-.64.25-1.19.94-1.19s.94.54.94,1.19v5.34c-4.65,3.21-8.11,5.64-8.11,9.79v2.13c0,3.91,2.38,6.78,5.94,6.78A4.18,4.18,0,0,0,54.59,38v1.63H58.5V16.73C58.5,13,55.93,9.9,52.22,9.9Zm.69,23.84c0,.79-.4,1.43-1.19,1.43s-1.19-.64-1.19-1.43V30.08c0-1.73.84-2.37,2.37-3.56Z"/>
  <rect x="37.84" y="0.06" width="5.59" height="39.57"/>
  <rect x="30.37" width="5.59" height="39.57"/>
  <path d="M22.35,9.9a6.8,6.8,0,0,0-6.78,6.83v2.87h5.59V16.08c0-.64.25-1.19.94-1.19s.94.54.94,1.19v5.34c-4.65,3.21-8.11,5.64-8.11,9.79v2.13c0,3.91,2.37,6.78,5.94,6.78A4.18,4.18,0,0,0,24.72,38v1.63h3.91V16.73C28.63,13,26.06,9.9,22.35,9.9ZM23,33.74c0,.79-.4,1.43-1.19,1.43s-1.19-.64-1.19-1.43V30.08c0-1.73.84-2.37,2.37-3.56Z"/>
  <path d="M8,39.63V16.08a1.19,1.19,0,1,0-2.37,0V39.63H0V10.44H5.59v1.29a4.39,4.39,0,0,1,8,2.62V39.63Z"/>
</symbol><symbol id="mute-cross" viewBox="0 0 6.66 6.66">
  <title>mute-cross</title>
  <polygon points="4.54 3.33 6.66 5.46 5.46 6.66 3.33 4.54 1.21 6.66 0 5.46 2.13 3.33 0 1.21 1.21 0 3.33 2.13 5.46 0 6.66 1.21 4.54 3.33" style="fill-rule: evenodd"/>
</symbol><symbol id="quote" viewBox="0 0 40.99 30">
  <title>quote</title>
  <path d="M13.53,12.25a9.32,9.32,0,0,0-5.4-.9l4.74-9.53L9.17,0,1,16.46a9.36,9.36,0,1,0,12.55-4.21ZM14.05,23a5.24,5.24,0,1,1-2.36-7A5.24,5.24,0,0,1,14.05,23Z" style="fill-rule: evenodd"/>
  <path d="M35.79,12.25a9.32,9.32,0,0,0-5.4-.9l4.74-9.53L31.43,0,23.24,16.46a9.36,9.36,0,1,0,12.55-4.21ZM36.31,23a5.24,5.24,0,1,1-2.36-7A5.24,5.24,0,0,1,36.31,23Z" style="fill-rule: evenodd"/>
</symbol><symbol id="volume" viewBox="0 0 10.37 14.99">
  <title>volume</title>
  <path d="M0,4.16v6.67H3.79L10.37,15V0L3.79,4.16Z" style="fill-rule: evenodd"/>
</symbol></svg>